<?xml version="1.0" encoding="utf-8"?>
<!-- Generator: Adobe Illustrator 25.0.1, SVG Export Plug-In . SVG Version: 6.00 Build 0)  -->
<svg version="1.0" id="Layer_1" xmlns="http://www.w3.org/2000/svg" xmlns:xlink="http://www.w3.org/1999/xlink" x="0px" y="0px"
	 width="208px" height="208px" viewBox="0 0 208 208" enable-background="new 0 0 208 208" xml:space="preserve">
<path fill="none" stroke="#000000" stroke-width="10" d="M15,45h178c5.5,0,10,4.5,10,10v98c0,5.5-4.5,10-10,10H15
	c-5.5,0-10-4.5-10-10V55C5,49.5,9.5,45,15,45z"/>
<path d="M30,138V70h20l20,25l20-25h20v68H90V99l-20,25L50,99v39H30z M155,138l-30-33h20V70h20v35h20L155,138z"/>
</svg>
